<svg id="Livello_1" data-name="Livello 1" xmlns="http://www.w3.org/2000/svg" viewBox="0 0 1080 1080"><defs><style>.cls-1{fill:#00b8fb;}.cls-2{fill:none;stroke:#00589e;stroke-miterlimit:10;stroke-width:3px;}</style></defs><path class="cls-1" d="M669.92,467.91a27.9,27.9,0,0,1-27.67,27.9h-217v5a9.24,9.24,0,0,1-.28,2.25l0,.13a10.37,10.37,0,0,1-1.17,2.39,11.38,11.38,0,0,1-3.94,3.49l-.05,0a29.37,29.37,0,0,0-12.14,16.27c-1.25,4.46-1.28,9.16-1.34,17,0,2.67,0,6.71-2.32,8.08a3.83,3.83,0,0,1-3.29.26c-2.27-1-2.53-4.25-3.44-8.33-1.44-6.49-2.4-5.4-4.1-12.16a61.57,61.57,0,0,1-1.88-14.49c0-5.58.42-18,8.08-27.54a24.43,24.43,0,0,1,7.91-6.39,48.89,48.89,0,0,1,8-3.12c11.71-3.85,28-13.42,48-38.73h179A27.9,27.9,0,0,1,669.92,467.91Z"/><path class="cls-1" d="M669.92,467.91a27.9,27.9,0,0,1-27.67,27.9h-217v5a9.24,9.24,0,0,1-.28,2.25l0,.13a10.37,10.37,0,0,1-1.17,2.39,11.38,11.38,0,0,1-3.94,3.49l-.05,0a29.37,29.37,0,0,0-12.14,16.27,31.2,31.2,0,0,0-.8,4.39c-.9,6.29-.3,9.27-.54,12.66-.31,4.4-2.3,13.11-6.72,14.38-5.3,1.51-8.13-8.89-19-10.93-7.15-1.35-13.6,1.71-14,.47-.29-.86,2.9-2.12,5.71-4.75,4.91-4.61,5.64-10.59,6.7-15.53a90.84,90.84,0,0,1,20.39-37.82,30,30,0,0,1,7.91-6.39,48.89,48.89,0,0,1,8-3.12c11.71-3.85,28-13.42,48-38.73h179A27.9,27.9,0,0,1,669.92,467.91Z"/><line class="cls-2" x1="575.68" y1="495.84" x2="575.68" y2="476.25"/><line class="cls-2" x1="515.55" y1="495.84" x2="515.55" y2="476.25"/><line class="cls-2" x1="455.42" y1="495.81" x2="455.42" y2="476.23"/><path class="cls-2" d="M669.92,467.91a27.9,27.9,0,0,1-27.67,27.9h-217v5a9,9,0,0,1-18,0V435a9,9,0,0,1,18,0v5h217A27.9,27.9,0,0,1,669.92,467.91Z"/><path class="cls-1" d="M406.3,542.17V639h-9V600.88a38.94,38.94,0,0,1-12.87,10.49A35.95,35.95,0,0,1,343.12,604a36.62,36.62,0,0,1-10.65-26.56,35.93,35.93,0,0,1,10.75-26.19,35.08,35.08,0,0,1,25.87-10.88,33.51,33.51,0,0,1,15.8,3.71,36,36,0,0,1,12.41,11.15v-13Zm-36.46,7a27.5,27.5,0,0,0-24.31,14.25,28.72,28.72,0,0,0,0,28.64,28,28,0,0,0,10.32,10.64,26.91,26.91,0,0,0,13.89,3.8A28.45,28.45,0,0,0,384,602.71a26.41,26.41,0,0,0,10.32-10.22A29.11,29.11,0,0,0,397.89,578q0-12.3-8.1-20.57A26.85,26.85,0,0,0,369.84,549.15Z"/><path class="cls-1" d="M420,542.17h9.71l23.8,51.68,23.51-51.68h9.77l-32.45,70.9h-1.69Z"/><path class="cls-1" d="M560.39,589.54l7.69,4a41.68,41.68,0,0,1-8.74,12,34.58,34.58,0,0,1-11.15,6.94,38.78,38.78,0,0,1-14,2.38q-17.35,0-27.13-11.37a38.36,38.36,0,0,1-9.78-25.7,37.92,37.92,0,0,1,8.28-24.05q10.5-13.42,28.11-13.42,18.12,0,29,13.75,7.7,9.71,7.83,24.24H506.64q.25,12.35,7.89,20.25a25.21,25.21,0,0,0,18.86,7.89,30.14,30.14,0,0,0,10.53-1.88,27.58,27.58,0,0,0,8.71-5Q556.21,596.49,560.39,589.54Zm0-19.09a30.26,30.26,0,0,0-5.31-11.66,25.24,25.24,0,0,0-9.23-7,28.3,28.3,0,0,0-12.07-2.67,26,26,0,0,0-17.94,6.71q-5.49,4.89-8.29,14.66Z"/><path class="cls-1" d="M595.38,515.85h9.13v26.32H619v7.89H604.51v63h-9.13v-63H582.94v-7.89h12.44Z"/><path class="cls-1" d="M640.6,515.85h9.13v26.32h14.46v7.89H649.73v63H640.6v-63H628.16v-7.89H640.6Z"/><path class="cls-1" d="M737.56,589.54l7.69,4a41.87,41.87,0,0,1-8.74,12,34.68,34.68,0,0,1-11.15,6.94,38.83,38.83,0,0,1-14,2.38q-17.34,0-27.13-11.37a38.36,38.36,0,0,1-9.78-25.7,37.92,37.92,0,0,1,8.28-24.05q10.5-13.42,28.11-13.42,18.13,0,29,13.75,7.69,9.71,7.82,24.24H683.8q.27,12.35,7.9,20.25a25.18,25.18,0,0,0,18.85,7.89,30.23,30.23,0,0,0,10.54-1.88,27.7,27.7,0,0,0,8.71-5Q733.39,596.49,737.56,589.54Zm0-19.09a30.26,30.26,0,0,0-5.32-11.66,25.07,25.07,0,0,0-9.23-7,28.3,28.3,0,0,0-12.07-2.67A26,26,0,0,0,693,555.79q-5.47,4.89-8.28,14.66Z"/></svg>